<svg width="20" height="20" viewBox="0 0 20 20" fill="none" xmlns="http://www.w3.org/2000/svg">
<path d="M13 5H7V6C7 6.55228 6.55228 7 6 7C5.44772 7 5 6.55228 5 6V5H4.56389C3.90203 5 3.70048 5.03892 3.49475 5.14895C3.3431 5.23005 3.23005 5.3431 3.14895 5.49475C3.03892 5.70048 3 5.90203 3 6.56389V8H17V6.56389C17 5.90203 16.9611 5.70048 16.8511 5.49475C16.7699 5.3431 16.6569 5.23005 16.5052 5.14895C16.2995 5.03892 16.098 5 15.4361 5H15V6C15 6.55228 14.5523 7 14 7C13.4477 7 13 6.55228 13 6V5ZM15 3H15.4361C16.3999 3 16.9134 3.09916 17.4484 3.38532C17.9486 3.65283 18.3472 4.05136 18.6147 4.55156C18.9008 5.08664 19 5.6001 19 6.56389V15.4361C19 16.3999 18.9008 16.9134 18.6147 17.4484C18.3472 17.9486 17.9486 18.3472 17.4484 18.6147C16.9134 18.9008 16.3999 19 15.4361 19H4.56389C3.6001 19 3.08664 18.9008 2.55156 18.6147C2.05136 18.3472 1.65283 17.9486 1.38532 17.4484C1.09916 16.9134 1 16.3999 1 15.4361V6.56389C1 5.6001 1.09916 5.08664 1.38532 4.55156C1.65283 4.05136 2.05136 3.65283 2.55156 3.38532C3.08664 3.09916 3.6001 3 4.56389 3H5V2C5 1.44772 5.44772 1 6 1C6.55228 1 7 1.44772 7 2V3H13V2C13 1.44772 13.4477 1 14 1C14.5523 1 15 1.44772 15 2V3ZM3 10V15.4361C3 16.098 3.03892 16.2995 3.14895 16.5052C3.23005 16.6569 3.3431 16.7699 3.49475 16.8511C3.70048 16.9611 3.90203 17 4.56389 17H15.4361C16.098 17 16.2995 16.9611 16.5052 16.8511C16.6569 16.7699 16.7699 16.6569 16.8511 16.5052C16.9611 16.2995 17 16.098 17 15.4361V10H3Z" fill="#000" fillOpacity="1"/>
</svg>
