<svg width="20" height="20" viewBox="0 0 20 20" fill="none" xmlns="http://www.w3.org/2000/svg">
<path d="M14 16.75V12C14 11.4477 14.4477 11 15 11H15.3992C15.5373 11 15.6492 10.8881 15.6492 10.75C15.6492 10.6932 15.6299 10.6382 15.5944 10.5938L10.3903 4.08867C10.2178 3.87303 9.90317 3.83807 9.68754 4.01058C9.65872 4.03363 9.63254 4.05981 9.60948 4.08862L4.40423 10.5938C4.31796 10.7016 4.33543 10.8589 4.44323 10.9452C4.48757 10.9807 4.54265 11 4.59943 11H5.00001C5.55229 11 6.00001 11.4477 6.00001 12V16.75C6.00001 16.8881 6.11194 17 6.25001 17H7.75001C7.88808 17 8.00001 16.8881 8.00001 16.75V15C8.00001 13.8954 8.89544 13 10 13C11.1046 13 12 13.8954 12 15V17H13.75C13.8881 17 14 16.8881 14 16.75ZM4.00001 13H3.03875C2.69809 13 2.36758 12.884 2.10159 12.6712C1.45475 12.1536 1.34996 11.2097 1.86755 10.5628L8.43832 2.35112C8.53055 2.23586 8.63526 2.13116 8.75054 2.03894C9.61306 1.34892 10.8716 1.48876 11.5617 2.35128L18.131 10.563C18.3438 10.8289 18.4597 11.1594 18.4597 11.5C18.4597 12.3284 17.7881 13 16.9597 13H16V17C16 18.1046 15.1046 19 14 19H6.00001C4.89544 19 4.00001 18.1046 4.00001 17V13Z" fill="#000" fillOpacity="1"/>
</svg>
