<svg width="20" height="20" viewBox="0 0 20 20" fill="none" xmlns="http://www.w3.org/2000/svg">
<path d="M13.4368 9.07222C13.4536 9.02866 13.4736 8.98575 13.497 8.9438C13.8253 8.35464 14 7.69114 14 7C14 4.79086 12.2091 3 10 3C7.79086 3 6 4.79086 6 7C6 7.72501 6.19225 8.4195 6.55191 9.02905C6.57387 9.06627 6.59315 9.10433 6.6098 9.14301C6.6537 9.208 6.69998 9.2718 6.74864 9.33442L7.82843 10.4142C8.57857 11.1644 9 12.1818 9 13.2426V14H10H11V13.2426C11 12.1818 11.4214 11.1644 12.1716 10.4142L13.2514 9.33442C13.3176 9.24921 13.3794 9.16183 13.4368 9.07222ZM15.9998 7.0591C15.9883 8.42315 15.5814 9.62399 14.7809 10.6247L14.7071 10.7071L13.5858 11.8284C13.2107 12.2035 13 12.7122 13 13.2426V15C13 15.5523 12.5523 16 12 16H8C7.44772 16 7 15.5523 7 15V13.2426C7 12.7122 6.78929 12.2035 6.41421 11.8284L5.29289 10.7071L5.21913 10.6247C4.41935 9.62496 4.01244 8.42549 4.00028 7.06309C4 7.04206 4 7.02104 4 7C4 3.68629 6.68629 1 10 1C13.3137 1 16 3.68629 16 7C16 7.01971 16 7.0394 15.9997 7.05909L15.9998 7.0591ZM8 17H12C12.5523 17 13 17.4477 13 18C13 18.5523 12.5523 19 12 19H8C7.44772 19 7 18.5523 7 18C7 17.4477 7.44772 17 8 17Z" fill="#000" fillOpacity="1"/>
</svg>
